<svg xmlns="http://www.w3.org/2000/svg" viewBox="0 0 1480 300" role="img" aria-labelledby="title desc">
  <title id="title">From galaxy shapes to cosmology</title>
  <desc id="desc">A seven-step schematic pipeline from sky images through PSF modelling, galaxy shapes, calibration, and pair correlations to cosmological constraints.</desc>
  <defs>
    <style>
      .label { font-family: "EB Garamond", Georgia, serif; font-size: 30px; font-weight: 600; fill: #1b1611; }
      .ink { stroke: #1b1611; }
      .muted { stroke: #7a6f5c; }
      .accent { stroke: #bc4538; }
      .teal { stroke: #3f8278; }
      .cobalt { stroke: #3d5ba0; }
      .ochre { stroke: #c49333; }
    </style>
    <marker id="arrow" viewBox="0 0 10 10" refX="8" refY="5" markerWidth="7" markerHeight="7" orient="auto-start-reverse">
      <path d="M 0 0 L 10 5 L 0 10 z" fill="#bc4538" />
    </marker>
    <radialGradient id="nodeGlow" cx="50%" cy="45%" r="70%">
      <stop offset="0%" stop-color="#ffffff" stop-opacity="0.84" />
      <stop offset="62%" stop-color="#ffffff" stop-opacity="0.42" />
      <stop offset="100%" stop-color="#f7f0e1" stop-opacity="0" />
    </radialGradient>
    <pattern id="fiber" width="74" height="58" patternUnits="userSpaceOnUse">
      <path d="M-12 31 C 18 4, 52 5, 86 34" fill="none" stroke="#3f8278" stroke-opacity="0.13" stroke-width="2" />
      <path d="M-8 49 C 22 24, 48 21, 82 48" fill="none" stroke="#3d5ba0" stroke-opacity="0.10" stroke-width="1.7" />
      <circle cx="21" cy="19" r="2.4" fill="#3f8278" fill-opacity="0.16" />
      <circle cx="56" cy="38" r="2.1" fill="#bc4538" fill-opacity="0.12" />
    </pattern>
  </defs>

  <rect width="1480" height="300" fill="#f7f0e1" />
  <rect x="34" y="26" width="1412" height="248" rx="24" fill="url(#fiber)" opacity="0.62" />
  <rect x="34" y="26" width="1412" height="248" rx="24" fill="#f7f0e1" opacity="0.72" />

  <path d="M 215 132 C 300 96, 405 168, 500 132 S 690 96, 790 132 S 980 168, 1080 132 S 1235 124, 1300 132"
        fill="none" stroke="#bc4538" stroke-width="7" stroke-linecap="round" stroke-opacity="0.82" marker-end="url(#arrow)" />
  <path d="M 215 132 C 300 96, 405 168, 500 132 S 690 96, 790 132 S 980 168, 1080 132 S 1235 124, 1300 132"
        fill="none" stroke="#f7f0e1" stroke-width="3" stroke-linecap="round" stroke-opacity="0.68" />

  <g transform="translate(160 132)">
    <circle r="100" fill="url(#nodeGlow)" />
    <circle r="72" fill="#fbf6e9" stroke="#c5b89e" stroke-width="2" />
    <path d="M-42 8 C-15 -35, 34 -28, 45 1 C 20 -12, -13 -11, -42 8Z" fill="none" class="teal" stroke-width="3" opacity="0.75" />
    <ellipse cx="-36" cy="-24" rx="10" ry="5.5" fill="none" class="cobalt" stroke-width="2.4" transform="rotate(-25 -36 -24)" />
    <ellipse cx="2" cy="-7" rx="14" ry="7" fill="none" class="muted" stroke-width="2.5" transform="rotate(18 2 -7)" />
    <ellipse cx="36" cy="26" rx="11" ry="5.5" fill="none" class="ochre" stroke-width="2.5" transform="rotate(-8 36 26)" />
    <circle cx="-12" cy="31" r="2.8" fill="#bc4538" opacity="0.45" />
    <text class="label" x="0" y="118" text-anchor="middle">sky</text>
  </g>

  <g transform="translate(353 132)">
    <circle r="96" fill="url(#nodeGlow)" />
    <rect x="-56" y="-44" width="112" height="90" rx="10" fill="#fbf6e9" stroke="#c5b89e" stroke-width="2.3" />
    <rect x="-42" y="-29" width="84" height="60" rx="5" fill="#ede2ce" stroke="#7a6f5c" stroke-opacity="0.45" stroke-width="1.5" />
    <circle cx="-21" cy="-8" r="6" fill="#3f8278" opacity="0.55" />
    <circle cx="18" cy="13" r="5" fill="#3d5ba0" opacity="0.45" />
    <path d="M-68 -68 L68 -68 M-44 -68 L-44 -45 M44 -68 L44 -45" fill="none" class="muted" stroke-width="4" stroke-linecap="round" opacity="0.55" />
    <text class="label" x="0" y="116" text-anchor="middle">images</text>
  </g>

  <g transform="translate(547 132)">
    <circle r="98" fill="url(#nodeGlow)" />
    <circle r="55" fill="#fbf6e9" stroke="#c5b89e" stroke-width="2.2" />
    <path d="M-44 27 C-22 27, -15 -33, 0 -33 C15 -33, 22 27, 44 27 Z" fill="#3d5ba0" fill-opacity="0.09" />
    <path d="M-46 27 H46" class="muted" stroke-width="1.4" opacity="0.4" />
    <path d="M-44 27 C-22 27, -15 -33, 0 -33 C15 -33, 22 27, 44 27" fill="none" class="cobalt" stroke-width="3" opacity="0.72" />
    <circle cx="-29" cy="13" r="3" fill="#bc4538" />
    <circle cx="-14" cy="-17" r="3" fill="#bc4538" />
    <circle cx="2" cy="-30" r="3" fill="#bc4538" />
    <circle cx="18" cy="-13" r="3" fill="#bc4538" />
    <circle cx="31" cy="15" r="3" fill="#bc4538" />
    <text class="label" x="0" y="118" text-anchor="middle">PSF</text>
  </g>

  <g transform="translate(740 132)">
    <circle r="98" fill="url(#nodeGlow)" />
    <circle r="60" fill="#fbf6e9" stroke="#c5b89e" stroke-width="2.2" />
    <ellipse cx="-24" cy="-18" rx="22" ry="8" fill="none" class="ink" stroke-width="2.5" opacity="0.65" transform="rotate(20 -24 -18)" />
    <ellipse cx="24" cy="-6" rx="20" ry="7" fill="none" class="ink" stroke-width="2.5" opacity="0.65" transform="rotate(20 24 -6)" />
    <ellipse cx="-4" cy="28" rx="24" ry="8" fill="none" class="ink" stroke-width="2.5" opacity="0.65" transform="rotate(20 -4 28)" />
    <path d="M-50 -49 L50 49 M-47 52 L-30 51 M30 -51 L47 -52" fill="none" class="teal" stroke-width="2" opacity="0.42" />
    <text class="label" x="0" y="116" text-anchor="middle">shapes</text>
  </g>

  <g transform="translate(933 132)">
    <circle r="98" fill="url(#nodeGlow)" />
    <rect x="-61" y="-51" width="122" height="102" rx="12" fill="#fbf6e9" stroke="#c5b89e" stroke-width="2.2" />
    <path d="M-37 22 C-19 -8, 6 -11, 37 -33" fill="none" class="teal" stroke-width="4" stroke-linecap="round" />
    <path d="M-38 -28 L39 -28 M-38 0 L39 0 M-38 28 L39 28" fill="none" class="muted" stroke-width="1.5" opacity="0.42" />
    <circle cx="-37" cy="22" r="5" fill="#bc4538" opacity="0.78" />
    <circle cx="4" cy="-11" r="5" fill="#bc4538" opacity="0.78" />
    <circle cx="37" cy="-33" r="5" fill="#bc4538" opacity="0.78" />
    <text class="label" x="0" y="116" text-anchor="middle">calib.</text>
  </g>

  <g transform="translate(1127 132)">
    <circle r="100" fill="url(#nodeGlow)" />
    <circle r="66" fill="#fbf6e9" stroke="#c5b89e" stroke-width="2.2" />
    <line x1="-42" y1="-26" x2="-2" y2="-38" class="muted" stroke-width="1.8" stroke-dasharray="3 4" opacity="0.62" />
    <ellipse cx="-42" cy="-26" rx="10" ry="4.8" fill="none" class="cobalt" stroke-width="2.4" transform="rotate(34 -42 -26)" />
    <ellipse cx="-2" cy="-38" rx="10" ry="4.8" fill="none" class="cobalt" stroke-width="2.4" transform="rotate(34 -2 -38)" />
    <line x1="-20" y1="20" x2="40" y2="30" class="muted" stroke-width="1.8" stroke-dasharray="3 4" opacity="0.62" />
    <ellipse cx="-20" cy="20" rx="10" ry="4.8" fill="none" class="accent" stroke-width="2.4" transform="rotate(-14 -20 20)" />
    <ellipse cx="40" cy="30" rx="10" ry="4.8" fill="none" class="accent" stroke-width="2.4" transform="rotate(-14 40 30)" />
    <text class="label" x="0" y="118" text-anchor="middle">2pt corr.</text>
  </g>

  <g transform="translate(1320 132)">
    <circle r="100" fill="url(#nodeGlow)" />
    <circle r="66" fill="#fbf6e9" stroke="#c5b89e" stroke-width="2.2" />
    <g transform="rotate(-24)">
    <path d="M -39.9 16.9 L -36.0 15.0 L -32.4 13.4 L -28.9 12.0 L -25.5 10.8 L -22.2 9.7 L -19.1 8.9 L -16.1 8.1 L -13.2 7.6 L -10.4 7.1 L -7.7 6.8 L -5.1 6.5 L -2.5 6.4 L 0.0 6.4 L 2.5 6.4 L 5.1 6.5 L 7.7 6.8 L 10.4 7.1 L 13.2 7.6 L 16.1 8.1 L 19.1 8.9 L 22.2 9.7 L 25.5 10.8 L 28.9 12.0 L 32.4 13.4 L 36.0 15.0 L 39.9 16.9 L 48.1 6.8 L 45.2 3.2 L 42.1 -0.2 L 38.8 -3.4 L 35.4 -6.3 L 31.9 -9.0 L 28.3 -11.4 L 24.5 -13.5 L 20.6 -15.4 L 16.6 -16.9 L 12.6 -18.1 L 8.4 -18.9 L 4.2 -19.5 L 0.0 -19.6 L -4.2 -19.5 L -8.4 -18.9 L -12.6 -18.1 L -16.6 -16.9 L -20.6 -15.4 L -24.5 -13.5 L -28.3 -11.4 L -31.9 -9.0 L -35.4 -6.3 L -38.8 -3.4 L -42.1 -0.2 L -45.2 3.2 L -48.1 6.8 Z" fill="none" class="cobalt" stroke-width="2.3" opacity="0.42" />
    <path d="M -26.3 11.2 L -23.8 9.9 L -21.4 8.9 L -19.1 7.9 L -16.8 7.1 L -14.7 6.4 L -12.6 5.9 L -10.6 5.4 L -8.7 5.0 L -6.9 4.7 L -5.1 4.5 L -3.4 4.3 L -1.7 4.3 L -0.0 4.2 L 1.7 4.3 L 3.4 4.3 L 5.1 4.5 L 6.9 4.7 L 8.7 5.0 L 10.6 5.4 L 12.6 5.9 L 14.7 6.4 L 16.8 7.1 L 19.1 7.9 L 21.4 8.9 L 23.8 9.9 L 26.3 11.2 L 31.7 4.5 L 29.8 2.1 L 27.8 -0.1 L 25.6 -2.2 L 23.4 -4.2 L 21.1 -6.0 L 18.7 -7.5 L 16.2 -8.9 L 13.6 -10.2 L 11.0 -11.2 L 8.3 -11.9 L 5.6 -12.5 L 2.8 -12.9 L -0.0 -13.0 L -2.8 -12.9 L -5.6 -12.5 L -8.3 -11.9 L -11.0 -11.2 L -13.6 -10.2 L -16.2 -8.9 L -18.7 -7.5 L -21.1 -6.0 L -23.4 -4.2 L -25.6 -2.2 L -27.8 -0.1 L -29.8 2.1 L -31.7 4.5 Z" fill="none" class="accent" stroke-width="2.7" opacity="0.62" />
    <path d="M -13.5 5.8 L -12.2 5.2 L -10.9 4.7 L -9.7 4.2 L -8.6 3.8 L -7.5 3.4 L -6.4 3.1 L -5.4 2.9 L -4.4 2.7 L -3.5 2.6 L -2.6 2.5 L -1.7 2.4 L -0.9 2.4 L -0.0 2.3 L 0.9 2.4 L 1.7 2.4 L 2.6 2.5 L 3.5 2.6 L 4.4 2.7 L 5.4 2.9 L 6.4 3.1 L 7.5 3.4 L 8.6 3.8 L 9.7 4.2 L 10.9 4.7 L 12.2 5.2 L 13.5 5.8 L 16.4 2.2 L 15.4 1.0 L 14.4 -0.2 L 13.3 -1.3 L 12.1 -2.3 L 10.9 -3.2 L 9.7 -4.0 L 8.4 -4.7 L 7.1 -5.4 L 5.7 -5.9 L 4.3 -6.3 L 2.9 -6.6 L 1.4 -6.8 L -0.0 -6.9 L -1.4 -6.8 L -2.9 -6.6 L -4.3 -6.3 L -5.7 -5.9 L -7.1 -5.4 L -8.4 -4.7 L -9.7 -4.0 L -10.9 -3.2 L -12.1 -2.3 L -13.3 -1.3 L -14.4 -0.2 L -15.4 1.0 L -16.4 2.2 Z" fill="#bc4538" fill-opacity="0.12" stroke="#bc4538" stroke-width="2.4" opacity="0.9" />
    </g>
    <circle r="3" fill="#bc4538" />
    <text class="label" x="0" y="118" text-anchor="middle">cosmology</text>
  </g>
</svg>
